HIERARCHY
ROOT Hips
{
	OFFSET 0.000000 0.000000 0.000000
	CHANNELS 6 Xposition Yposition Zposition Zrotation Yrotation Xrotation 
	JOINT LHipJoint
	{
		OFFSET 0.000000 0.000000 0.000000
		CHANNELS 3 Zrotation Yrotation Xrotation
		JOINT LeftUpLeg
		{
			OFFSET 1.363060 -1.794630 0.839290
			CHANNELS 3 Zrotation Yrotation Xrotation
			JOINT LeftLeg
			{
				OFFSET 2.448110 -6.726130 0.000000
				CHANNELS 3 Zrotation Yrotation Xrotation
				JOINT LeftFoot
				{
					OFFSET 2.562200 -7.039590 0.000000
					CHANNELS 3 Zrotation Yrotation Xrotation
					JOINT LeftToeBase
					{
						OFFSET 0.157640 -0.433110 2.322550
						CHANNELS 3 Zrotation Yrotation Xrotation
						End Site
						{
							OFFSET 0.000000 0.000000 0.000000
						}
					}
				}
			}
		}
	}
	JOINT RHipJoint
	{
		OFFSET 0.000000 0.000000 0.000000
		CHANNELS 3 Zrotation Yrotation Xrotation
		JOINT RightUpLeg
		{
			OFFSET -1.305520 -1.794630 0.839290
			CHANNELS 3 Zrotation Yrotation Xrotation
			JOINT RightLeg
			{
				OFFSET -2.542530 -6.985550 0.000000
				CHANNELS 3 Zrotation Yrotation Xrotation
				JOINT RightFoot
				{
					OFFSET -2.568260 -7.056230 0.000000
					CHANNELS 3 Zrotation Yrotation Xrotation
					JOINT RightToeBase
					{
						OFFSET -0.164730 -0.452590 2.363150
						CHANNELS 3 Zrotation Yrotation Xrotation
						End Site
						{
							OFFSET 0.000000 0.000000 0.000000
						}
					}
				}
			}
		}
	}
	JOINT LowerBack
	{
		OFFSET 0.000000 0.000000 0.000000
		CHANNELS 3 Zrotation Yrotation Xrotation
		JOINT Spine
		{
			OFFSET 0.028270 2.035590 -0.193380
			CHANNELS 3 Zrotation Yrotation Xrotation
			JOINT Spine1
			{
				OFFSET 0.056720 2.048850 -0.042750
				CHANNELS 3 Zrotation Yrotation Xrotation
				JOINT Neck
				{
					OFFSET 0.000000 0.000000 0.000000
					CHANNELS 3 Zrotation Yrotation Xrotation
					JOINT Neck1
					{
						OFFSET -0.054170 1.746240 0.172020
						CHANNELS 3 Zrotation Yrotation Xrotation
						JOINT Head
						{
							OFFSET 0.104070 1.761360 -0.123970
							CHANNELS 3 Zrotation Yrotation Xrotation
							End Site
							{
								OFFSET 0.000000 0.000000 0.000000
							}
						}
					}
				}
				JOINT LeftShoulder
				{
					OFFSET 0.000000 0.000000 0.000000
					CHANNELS 3 Zrotation Yrotation Xrotation
					JOINT LeftArm
					{
						OFFSET 3.362410 1.200890 -0.311210
						CHANNELS 3 Zrotation Yrotation Xrotation
						JOINT LeftForeArm
						{
							OFFSET 4.983000 -0.000000 -0.000000
							CHANNELS 3 Zrotation Yrotation Xrotation
							JOINT LeftHand
							{
								OFFSET 3.483560 -0.000000 -0.000000
								CHANNELS 3 Zrotation Yrotation Xrotation
								JOINT LeftFingerBase
								{
									OFFSET 0.000000 0.000000 0.000000
									CHANNELS 3 Zrotation Yrotation Xrotation
									JOINT LeftHandIndex1
									{
										OFFSET 0.715260 -0.000000 -0.000000
										CHANNELS 3 Zrotation Yrotation Xrotation
										End Site
										{
											OFFSET 0.000000 0.000000 0.000000
										}
									}
								}
								JOINT LThumb
								{
									OFFSET 0.000000 0.000000 0.000000
									CHANNELS 3 Zrotation Yrotation Xrotation
									End Site
									{
										OFFSET 0.000000 0.000000 0.000000
									}
								}
							}
						}
					}
				}
				JOINT RightShoulder
				{
					OFFSET 0.000000 0.000000 0.000000
					CHANNELS 3 Zrotation Yrotation Xrotation
					JOINT RightArm
					{
						OFFSET -3.136600 1.374050 -0.404650
						CHANNELS 3 Zrotation Yrotation Xrotation
						JOINT RightForeArm
						{
							OFFSET -5.241900 -0.000000 -0.000000
							CHANNELS 3 Zrotation Yrotation Xrotation
							JOINT RightHand
							{
								OFFSET -3.444170 -0.000000 -0.000000
								CHANNELS 3 Zrotation Yrotation Xrotation
								JOINT RightFingerBase
								{
									OFFSET 0.000000 0.000000 0.000000
									CHANNELS 3 Zrotation Yrotation Xrotation
									JOINT RightHandIndex1
									{
										OFFSET -0.622530 -0.000000 -0.000000
										CHANNELS 3 Zrotation Yrotation Xrotation
										End Site
										{
											OFFSET 0.000000 0.000000 0.000000
										}
									}
								}
								JOINT RThumb
								{
									OFFSET 0.000000 0.000000 0.000000
									CHANNELS 3 Zrotation Yrotation Xrotation
									End Site
									{
										OFFSET 0.000000 0.000000 0.000000
									}
								}
							}
						}
					}
				}
			}
		}
	}
}
MOTION
Frames: 10
Frame Time: 0.008333
-39.302365 17.429209 -5.454685 -104.780558 86.888750 -107.798557 4.792574 1.063536 -1.663030 -20.212279 7.098960 3.692686 0.886974 5.334878 16.133347 -0.603142 6.902017 -12.128384 0.148000 -2.479500 -6.832800 -4.348037 -0.535854 -0.701080 28.052261 3.509885 -2.493513 -2.663346 -10.667376 31.249729 -0.362928 -8.223970 -24.530306 -0.211100 -2.958200 8.162500 2.077113 -0.280854 4.111528 1.236652 -0.090034 -0.891764 -2.226241 -0.043505 1.706539 -0.482059 0.559085 -7.126250 6.347995 -0.106140 4.833829 -0.048100 0.060300 1.946900 -4.827148 -5.108798 1.024410 -78.912927 1.739544 26.603383 9.465538 -19.328357 -2.303147 -0.923313 -0.651195 -17.376472 16.048816 11.161749 3.502600 -7.125000 0.000000 0.000000 -8.962100 41.785200 0.717100 6.709576 4.744456 0.682987 79.189052 -1.489089 20.696066 -10.669669 21.282626 -2.671482 0.853978 -0.027925 2.281462 -15.071902 -9.942201 2.811100 7.125000 0.000000 0.000000 9.703000 -40.090500 1.187200 
-39.304210 17.428492 -5.454583 -104.373578 86.801798 -107.406499 4.789313 1.061860 -1.663963 -20.116812 7.054134 3.676756 0.895711 5.356310 16.198422 -0.603326 6.918678 -12.172136 0.144300 -2.448200 -6.746100 -4.351576 -0.535661 -0.701926 28.157906 3.500526 -2.470371 -2.655806 -10.657998 31.216032 -0.356334 -8.249589 -24.521001 -0.211200 -2.958700 8.163900 2.171347 -0.284814 4.134300 1.244110 -0.094125 -0.888812 -2.240352 -0.044104 1.699384 -0.499373 0.558918 -7.089348 6.368227 -0.106342 4.822602 -0.031200 0.060100 1.930900 -4.829194 -5.109259 1.026140 -78.905697 1.738749 26.633456 9.470566 -19.333221 -2.303959 -0.923584 -0.648873 -17.410891 16.083139 11.112992 3.494400 -7.125000 0.000000 0.000000 -8.921700 41.735400 0.724900 6.712102 4.742565 0.685963 79.160789 -1.455531 20.690941 -10.641068 21.249475 -2.663270 0.856343 -0.025284 2.281775 -15.061652 -9.999990 2.826600 7.125000 0.000000 0.000000 9.721600 -40.151500 1.174700 
-39.305747 17.429721 -5.453968 -104.471516 86.803518 -107.494620 4.789563 1.062299 -1.663318 -20.117807 7.048233 3.659610 0.895695 5.358414 16.203224 -0.596393 6.885909 -12.183167 0.142400 -2.432200 -6.701600 -4.351806 -0.535202 -0.701526 28.158969 3.507641 -2.485729 -2.655047 -10.657895 31.213735 -0.365047 -8.220315 -24.541945 -0.215500 -2.988600 8.247000 2.153095 -0.298991 4.142106 1.246862 -0.113464 -0.890560 -2.221143 -0.054418 1.690614 -0.514072 0.568467 -7.086490 6.373689 -0.093054 4.819083 -0.026000 0.066500 1.929000 -4.829128 -5.110612 1.025663 -78.918018 1.737053 26.576174 9.470817 -19.332718 -2.304414 -0.921901 -0.650937 -17.385435 16.026382 11.147836 3.493300 -7.125000 0.000000 0.000000 -8.980300 41.768800 0.722300 6.713998 4.743017 0.686523 79.121124 -1.471972 20.761769 -10.657567 21.270148 -2.668117 0.856569 -0.026041 2.244025 -15.099588 -9.970739 2.825100 7.125000 0.000000 0.000000 9.682700 -40.123400 1.176700 
-39.305849 17.429209 -5.453865 -104.616663 86.804680 -107.650544 4.789836 1.062309 -1.664865 -20.115694 7.065494 3.655519 0.896821 5.361956 16.212623 -0.600345 6.898256 -12.158235 0.146100 -2.463500 -6.788400 -4.351757 -0.534225 -0.703423 28.161361 3.518659 -2.467479 -2.654487 -10.656616 31.211011 -0.353363 -8.277661 -24.541030 -0.211500 -2.960900 8.169800 2.142492 -0.302308 4.137499 1.247910 -0.117683 -0.883802 -2.214549 -0.056450 1.719037 -0.499452 0.565901 -7.108149 6.360436 -0.096803 4.817747 -0.037700 0.064200 1.931600 -4.829185 -5.108622 1.026949 -78.919614 1.700909 26.572890 9.461094 -19.320299 -2.301285 -0.922522 -0.648915 -17.376313 16.041447 11.124249 3.488900 -7.125000 0.000000 0.000000 -8.962100 41.744100 0.726300 6.718489 4.740970 0.688470 79.096216 -1.450123 20.760273 -10.659346 21.271854 -2.668912 0.856930 -0.024515 2.256434 -15.087293 -9.989718 2.828700 7.125000 0.000000 0.000000 9.696900 -40.143500 1.173600 
-39.306669 17.429414 -5.453660 -104.635298 86.797042 -107.670030 4.789334 1.062259 -1.665736 -20.104516 7.069961 3.653657 0.896166 5.359733 16.205986 -0.601043 6.898137 -12.147368 0.146300 -2.465000 -6.792500 -4.352483 -0.533527 -0.704061 28.174448 3.529115 -2.470249 -2.654930 -10.658127 31.214503 -0.347301 -8.309991 -24.544635 -0.209400 -2.946200 8.129100 2.141257 -0.307886 4.136904 1.249807 -0.125141 -0.880717 -2.207238 -0.060117 1.730611 -0.499855 0.569426 -7.113255 6.361657 -0.092209 4.815256 -0.037600 0.066400 1.930500 -4.829719 -5.107965 1.027667 -78.922629 1.682001 26.556348 9.457698 -19.315734 -2.300458 -0.922716 -0.648514 -17.370387 16.042217 11.123188 3.488700 -7.125000 0.000000 0.000000 -8.961100 41.742800 0.726500 6.721179 4.739713 0.689960 79.069729 -1.439778 20.779597 -10.661524 21.274731 -2.669795 0.857581 -0.023996 2.247851 -15.099363 -9.994371 2.832400 7.125000 0.000000 0.000000 9.687000 -40.149700 1.170900 
-39.307387 17.429721 -5.453353 -104.708868 86.799778 -107.742466 4.789283 1.062392 -1.666537 -20.105455 7.078127 3.653312 0.894618 5.355199 16.192573 -0.601832 6.897079 -12.132140 0.147100 -2.471600 -6.810800 -4.352795 -0.532852 -0.704737 28.174173 3.539371 -2.475967 -2.656409 -10.660968 31.222851 -0.344090 -8.329925 -24.551254 -0.208300 -2.938400 8.107300 2.128224 -0.313254 4.133219 1.250851 -0.132381 -0.877636 -2.197232 -0.063936 1.744583 -0.501467 0.572862 -7.122760 6.363314 -0.087523 4.816491 -0.037300 0.068800 1.932400 -4.830298 -5.106961 1.028087 -78.927090 1.662738 26.537483 9.454915 -19.312100 -2.299910 -0.922903 -0.648540 -17.363938 16.039970 11.129835 3.490200 -7.125000 0.000000 0.000000 -8.964200 41.749400 0.725300 6.723517 4.738559 0.691247 79.044373 -1.430838 20.799711 -10.665497 21.279691 -2.671252 0.858096 -0.023801 2.236893 -15.115854 -9.992579 2.835100 7.125000 0.000000 0.000000 9.672000 -40.149300 1.169100 
-39.308104 17.429824 -5.453045 -104.741354 86.799275 -107.775005 4.789154 1.062425 -1.667169 -20.102459 7.084436 3.649452 0.893830 5.353113 16.186102 -0.602290 6.895298 -12.120093 0.147900 -2.478000 -6.828800 -4.353121 -0.532327 -0.705263 28.177982 3.548408 -2.479227 -2.656992 -10.662534 31.226992 -0.342884 -8.340193 -24.557430 -0.208200 -2.938100 8.106500 2.120287 -0.317056 4.129219 1.251636 -0.137587 -0.875137 -2.190771 -0.066653 1.755142 -0.501079 0.574493 -7.124640 6.365100 -0.085429 4.817544 -0.037100 0.070000 1.932300 -4.830874 -5.106053 1.028614 -78.929098 1.647535 26.524297 9.452757 -19.309610 -2.299628 -0.923269 -0.648873 -17.361556 16.041337 11.140158 3.493800 -7.125000 0.000000 0.000000 -8.964800 41.760400 0.722900 6.725426 4.737330 0.692295 79.023782 -1.426213 20.819633 -10.668982 21.284503 -2.672617 0.858863 -0.023251 2.223828 -15.130309 -10.000491 2.840300 7.125000 0.000000 0.000000 9.660500 -40.158900 1.165400 
-39.309026 17.430234 -5.452738 -104.746655 86.798899 -107.777702 4.789055 1.062421 -1.667511 -20.100275 7.087110 3.644519 0.893256 5.351625 16.181351 -0.602316 6.892940 -12.113233 0.148100 -2.480300 -6.835100 -4.353406 -0.532006 -0.705495 28.180324 3.553835 -2.487141 -2.657589 -10.664039 31.230765 -0.341096 -8.350175 -24.559225 -0.207800 -2.935100 8.098300 2.113508 -0.320141 4.127176 1.252049 -0.141893 -0.873730 -2.186279 -0.068835 1.760784 -0.500470 0.576696 -7.123605 6.368292 -0.082755 4.820038 -0.036000 0.071500 1.932800 -4.831393 -5.105480 1.028898 -78.930262 1.637098 26.511867 9.452731 -19.309548 -2.300098 -0.923623 -0.649646 -17.362524 16.041465 11.156245 3.498900 -7.125000 0.000000 0.000000 -8.967400 41.777500 0.719300 6.726696 4.736589 0.692994 79.006362 -1.425679 20.841410 -10.673722 21.290929 -2.674349 0.859731 -0.022692 2.205595 -15.146261 -10.010386 2.846300 7.125000 0.000000 0.000000 9.647800 -40.170700 1.161000 
-39.310051 17.430439 -5.452431 -104.744868 86.794256 -107.774550 4.788846 1.062415 -1.667590 -20.093715 7.085665 3.637448 0.893372 5.351969 16.182174 -0.602271 6.891824 -12.109893 0.148400 -2.482200 -6.840300 -4.353753 -0.531772 -0.705624 28.186868 3.555760 -2.494092 -2.657802 -10.664985 31.232708 -0.341527 -8.349271 -24.561722 -0.208600 -2.940400 8.112900 2.111535 -0.323662 4.128026 1.252895 -0.146524 -0.873091 -2.182845 -0.071314 1.761551 -0.498664 0.580260 -7.117587 6.370125 -0.078645 4.819775 -0.035800 0.073600 1.930700 -4.831482 -5.105412 1.029205 -78.932236 1.631429 26.501794 9.454437 -19.311860 -2.301015 -0.923894 -0.650254 -17.365239 16.042711 11.168880 3.503200 -7.125000 0.000000 0.000000 -8.968600 41.791000 0.716300 6.727877 4.736008 0.693572 78.990325 -1.429103 20.867167 -10.680679 21.300158 -2.676893 0.860638 -0.021826 2.182151 -15.158586 -10.024555 2.852800 7.125000 0.000000 0.000000 9.639100 -40.186600 1.156100 
-39.311076 17.430439 -5.452123 -104.738869 86.791754 -107.768567 4.788751 1.062443 -1.667492 -20.090243 7.084730 3.634635 0.893221 5.351354 16.180334 -0.602822 6.893626 -12.107286 0.148400 -2.482300 -6.840600 -4.353808 -0.531794 -0.705575 28.188892 3.552561 -2.500315 -2.658357 -10.666234 31.236035 -0.344339 -8.335806 -24.562234 -0.210100 -2.951000 8.142200 2.110284 -0.326515 4.133955 1.252932 -0.150114 -0.873363 -2.184112 -0.073126 1.757883 -0.488707 0.587178 -7.115555 6.369000 -0.070620 4.819709 -0.038900 0.077700 1.930500 -4.831261 -5.105881 1.029277 -78.932017 1.629321 26.495381 9.457181 -19.315044 -2.302009 -0.924005 -0.650496 -17.369932 16.043906 11.173205 3.504800 -7.125000 0.000000 0.000000 -8.968200 41.795700 0.715300 6.728704 4.736351 0.693925 78.980562 -1.429348 20.876177 -10.682718 21.302614 -2.677646 0.861165 -0.021546 2.171097 -15.166969 -10.030288 2.856100 7.125000 0.000000 0.000000 9.632600 -40.193300 1.153700 
